<?xml version="1.0" standalone="no"?><!DOCTYPE svg PUBLIC "-//W3C//DTD SVG 1.1//EN" "http://www.w3.org/Graphics/SVG/1.1/DTD/svg11.dtd"><svg class="icon" height="512" viewBox="0 0 1024 1024" version="1.1" xmlns="http://www.w3.org/2000/svg"><path d="M164.623923 31.111962c-36.501435 0-66.143541 29.887081-66.14354 66.14354v828.019139c0 36.501435 29.887081 66.143541 66.14354 66.143541h695.487082c36.501435 0 66.143541-29.887081 66.14354-66.143541v-705.5311L737.37799 30.866986H164.623923z" fill="#FFFFFF" /><path d="M939.483254 210.189474l-188.631579-188.876555c-3.429665-3.429665-6.614354-3.429665-13.228708-3.429665H164.623923C118.078469 14.698565 81.82201 51.2 81.82201 97.500478v828.019139c0 46.300478 36.501435 82.801914 82.801913 82.801914h695.487082c46.300478 0 82.801914-36.501435 82.801914-82.801914v-705.5311c0-3.184689-3.429665-6.614354-3.429665-9.799043zM744.237321 71.043062l142.3311 142.331101H793.722488c-26.457416 0-49.730144-23.272727-49.730144-49.730144 0.244976 0 0.244976-92.600957 0.244977-92.600957z m115.873684 904.206699H164.623923c-26.457416 0-49.730144-23.272727-49.730143-49.730144v-828.019139c0-26.457416 23.272727-49.730144 49.730143-49.730143h546.541627v115.873684c0 46.300478 36.501435 82.801914 82.801914 82.801914h115.873684v679.073684c0 26.457416-23.272727 49.730144-49.730143 49.730144z" fill="#CECECE" /><path d="M288.826794 459.820096c0 8.574163-0.489952 21.312919-1.22488 38.461244s-1.22488 30.132057-1.224881 38.70622c0 9.554067 0.244976 23.762679 0.489953 42.625837 0.244976 18.863158 0.489952 33.316746 0.489952 42.870814 0 37.236364-16.903349 60.754067-50.465072 70.55311-9.554067 2.939713-16.658373 4.164593-21.067943 4.164593-1.959809 0-3.429665-1.469856-3.919617-4.164593-0.489952-1.714833-0.734928-4.654545-0.489952-8.084211 0.489952-4.899522 0.489952-7.104306 0.489952-6.369378 0-1.714833-0.244976-4.164593-0.734928-7.594258-0.489952-3.429665-0.734928-5.879426-0.734928-7.594259 0-2.449761 0.734928-3.674641 2.449761-4.164593 12.983732-2.449761 21.312919-5.144498 24.742583-8.819139 4.409569-4.409569 6.614354-13.228708 6.614354-26.21244 0-9.309091-0.244976-23.272727-0.734928-41.645933-0.489952-18.618182-0.734928-32.336842-0.734928-41.645933 0-18.373206-1.469856-44.095694-4.40957-77.167464l-0.244976-2.204785c0-1.714833 1.22488-2.939713 3.429665-3.429665 0.734928-0.244976 7.839234-0.979904 21.067943-1.959808 13.228708-0.979904 20.822967-1.469856 22.537799-1.469857 2.449761 0 3.674641 1.714833 3.674641 5.144498z m2.449761-52.424881c0 15.678469-9.064115 23.517703-27.192344 23.517704-7.594258 0-13.963636-1.959809-18.863158-5.879426-5.389474-4.164593-8.084211-10.044019-8.084211-17.638278 0-7.349282 2.694737-13.228708 8.084211-17.883253 5.144498-4.164593 11.513876-6.369378 18.863158-6.369378s13.71866 2.204785 18.863157 6.369378c5.63445 4.654545 8.329187 10.533971 8.329187 17.883253zM418.419139 580.348325c0 19.35311-7.594258 34.786603-23.027751 46.300479-13.963636 10.533971-31.111962 15.923445-51.2 15.923445-7.839234 0-12.248804-0.244976-13.228709-0.489952-2.204785-0.979904-3.184689-4.164593-3.184689-9.554067 0-2.939713-0.244976-7.104306-0.979904-12.738756-0.734928-5.63445-0.979904-9.799043-0.979904-12.738756 0-1.714833 1.22488-2.694737 3.429665-3.184689 1.714833-0.489952 4.164593-0.489952 7.104306 0 3.919617 0.489952 5.879426 0.489952 5.879426 0.489952 24.497608 0 36.746411-7.594258 36.746411-22.537799 0-7.104306-5.389474-13.71866-16.168421-19.598086-17.393301-9.554067-27.437321-15.433493-30.132057-17.638278-10.778947-9.309091-16.168421-21.312919-16.168421-36.011483 0-19.35311 7.349282-34.541627 22.047847-45.56555 13.228708-9.799043 29.887081-14.453589 50.220095-14.453589 1.714833 0 3.184689 0.734928 3.919618 2.449761 0.734928 1.714833 2.449761 6.85933 4.899521 15.678469 2.449761 8.819139 3.674641 14.208612 3.674641 15.923445 0 1.469856-1.22488 2.449761-3.674641 2.694737-8.329187 1.22488-16.658373 2.204785-24.98756 3.184689-10.044019 2.694737-14.943541 8.084211-14.94354 16.413397 0 5.879426 5.144498 11.758852 15.678469 17.638277 15.433493 8.574163 25.477512 14.943541 29.642105 18.863158 10.044019 10.044019 15.433493 23.027751 15.433493 38.951196zM622.239234 545.561722c0 26.947368-8.819139 50.220096-26.702392 69.32823-18.12823 19.843062-40.666029 29.642105-67.368421 29.642105-26.947368 0-49.485167-9.799043-67.613397-29.642105-17.638278-19.108134-26.702392-42.135885-26.702392-69.083253s8.819139-50.220096 26.702392-69.083254c18.373206-19.35311 40.666029-29.152153 67.613397-29.152153 26.702392 0 48.995215 9.799043 67.123445 29.152153 18.12823 18.863158 26.947368 41.890909 26.947368 68.838277z m-40.911004 0.244977c0-15.678469-4.899522-29.152153-14.453589-40.421053-10.044019-11.758852-23.027751-17.638278-38.461244-17.638278-15.433493 0-28.417225 5.879426-38.70622 17.393302-9.799043 11.2689-14.453589 24.742584-14.453588 40.666029 0 15.433493 4.899522 28.907177 14.698564 40.421052 10.288995 12.003828 23.272727 18.12823 38.461244 18.12823 15.433493 0 28.172249-6.124402 38.461244-18.12823 9.554067-11.2689 14.453589-24.742584 14.453589-40.421052zM820.669856 636.202871c0 2.939713-1.22488 4.164593-3.919617 4.164593-4.164593 0-10.533971 0-19.108134-0.244976s-14.943541-0.244976-19.108134-0.244976c-2.449761 0-3.429665-1.959809-3.429665-5.63445 0-6.369378 0.244976-15.923445 0.489952-28.907177 0.489952-12.983732 0.489952-22.537799 0.489953-29.152153 0-5.144498 0-12.983732-0.244977-23.272727s-0.244976-18.12823-0.244976-23.272727c0-14.698565-2.204785-25.232536-6.369378-31.356938-5.144498-7.349282-14.698565-10.778947-28.662201-10.778948-6.369378 0-15.433493 3.674641-26.947368 10.778948-12.248804 7.594258-18.373206 14.453589-18.373206 20.333014v116.608613c0 3.184689-1.22488 4.899522-3.674641 4.899521-4.164593 0-10.288995 0-18.618182-0.244976-8.329187-0.244976-14.453589-0.244976-18.618182-0.244976-2.694737 0-4.164593-1.469856-4.164593-4.409569 0-10.288995 0.244976-25.477512 0.489952-46.055503s0.489952-35.766507 0.489952-46.300478c0-27.682297-2.939713-52.914833-8.819138-76.432536-0.489952-1.22488-0.489952-1.959809-0.489952-2.449761 0-1.22488 0.734928-2.204785 2.44976-2.694737 0.979904-0.244976 8.329187-1.22488 22.292823-3.674641 13.963636-2.204785 21.312919-3.429665 21.802871-3.429665 0.734928 0 1.22488 0.979904 1.469857 3.184689 0.734928 8.084211 2.204785 16.168421 4.409569 24.252632 6.614354-5.389474 15.678469-12.003828 26.702392-19.843063 13.473684-8.329187 26.702392-12.49378 39.441149-12.49378 24.252632 0 40.911005 7.104306 49.975119 21.067943 6.614354 10.288995 9.799043 27.192344 9.799043 50.220096 0 3.919617 0 10.044019-0.244976 18.373205-0.244976 8.329187-0.244976 14.453589-0.244976 18.618182 0 8.574163 0.244976 21.557895 0.489952 38.951196 0.489952 18.12823 0.489952 30.866986 0.489952 39.686125z" fill="#005BAA" /></svg>